<svg width="9" height="15" viewBox="0 0 9 15" fill="none" xmlns="http://www.w3.org/2000/svg">
<path fill-rule="evenodd" clip-rule="evenodd" d="M8.56132 6.78287C8.84222 7.06412 9 7.44537 9 7.84287C9 8.24037 8.84222 8.62162 8.56132 8.90287L2.90532 14.5609C2.62393 14.8421 2.24232 15.0001 1.84447 15C1.64747 15 1.4524 14.9611 1.27042 14.8857C1.08843 14.8102 0.923087 14.6997 0.78382 14.5604C0.644553 14.421 0.534094 14.2556 0.458748 14.0736C0.383402 13.8916 0.344646 13.6965 0.344692 13.4995C0.344739 13.3025 0.383588 13.1075 0.459019 12.9255C0.53445 12.7435 0.644987 12.5781 0.78432 12.4389L5.37932 7.84287L0.783321 3.24687C0.639992 3.10857 0.525641 2.9431 0.446942 2.76014C0.368244 2.57717 0.326775 2.38036 0.32495 2.18119C0.323126 1.98202 0.360986 1.78449 0.436321 1.60011C0.511655 1.41573 0.622955 1.2482 0.763726 1.1073C0.904498 0.966391 1.07192 0.854932 1.25623 0.779424C1.44054 0.703916 1.63804 0.66587 1.83721 0.667507C2.03638 0.669143 2.23323 0.710428 2.41627 0.788953C2.59931 0.867479 2.76488 0.981673 2.90332 1.12487L8.56332 6.78287L8.56132 6.78287Z" fill="#34C5F0"/>
</svg>
