<svg width="117" height="46" viewBox="0 0 117 46" fill="none" xmlns="http://www.w3.org/2000/svg">
<path d="M1.18244 33.7822H4.40705C5.02912 33.7822 5.55175 33.888 5.97492 34.0996C6.3981 34.3112 6.71337 34.6011 6.92072 34.9692C7.13231 35.3374 7.23811 35.7542 7.23811 36.2197C7.23811 36.7699 7.10057 37.1994 6.82551 37.5083C6.55044 37.813 6.18863 38.0267 5.74006 38.1494V38.2383C6.03628 38.2552 6.32828 38.3568 6.61604 38.543C6.9038 38.7292 7.14078 38.9937 7.32697 39.3364C7.51317 39.675 7.60627 40.0749 7.60627 40.5361C7.60627 41.0143 7.49624 41.4354 7.27619 41.7993C7.06037 42.1632 6.72183 42.451 6.26057 42.6626C5.7993 42.87 5.21955 42.9736 4.52131 42.9736H1.18244V33.7822ZM4.50861 41.958C5.18993 41.958 5.69139 41.8268 6.01301 41.5645C6.33885 41.3021 6.50178 40.9551 6.50178 40.5234C6.50178 40.2103 6.42137 39.9225 6.26057 39.6602C6.10399 39.3936 5.87759 39.1841 5.58137 39.0317C5.28938 38.8752 4.95295 38.7969 4.57209 38.7969H2.32502V41.958H4.50861ZM4.36897 37.8066C4.69904 37.8066 4.9995 37.7432 5.27033 37.6162C5.54117 37.485 5.75487 37.3009 5.91145 37.064C6.06802 36.8228 6.14631 36.5456 6.14631 36.2324C6.14631 35.8092 6.00031 35.4644 5.70832 35.1978C5.41633 34.9312 4.98257 34.7979 4.40705 34.7979H2.32502V37.8066H4.36897ZM16.6514 33.7822V39.8633C16.6514 40.4896 16.5033 41.0524 16.2071 41.5518C15.9109 42.0469 15.4919 42.4362 14.9503 42.7197C14.4086 42.999 13.7823 43.1387 13.0713 43.1387C12.3604 43.1387 11.7341 42.999 11.1924 42.7197C10.6508 42.4362 10.2318 42.0469 9.93561 41.5518C9.63938 41.0524 9.49127 40.4896 9.49127 39.8633V33.7822H10.6338V39.7744C10.6338 40.2188 10.7312 40.6144 10.9258 40.9614C11.1247 41.3084 11.4083 41.5814 11.7764 41.7803C12.1446 41.9749 12.5762 42.0723 13.0713 42.0723C13.5707 42.0723 14.0023 41.9749 14.3663 41.7803C14.7344 41.5814 15.0158 41.3084 15.2105 40.9614C15.4094 40.6144 15.5088 40.2188 15.5088 39.7744V33.7822H16.6514ZM23.9573 36.0928C23.9235 35.7965 23.8156 35.5426 23.6336 35.3311C23.4559 35.1152 23.2189 34.9523 22.9227 34.8423C22.6264 34.728 22.2942 34.6709 21.9261 34.6709C21.5283 34.6709 21.1749 34.7365 20.866 34.8677C20.5613 34.9946 20.3243 35.1724 20.1551 35.4009C19.99 35.6294 19.9075 35.8896 19.9075 36.1816C19.9075 36.6048 20.0789 36.9285 20.4217 37.1528C20.7687 37.3771 21.1897 37.5527 21.6849 37.6797L22.5989 37.9336C23.3099 38.1156 23.9214 38.397 24.4334 38.7778C24.9454 39.1545 25.2015 39.7194 25.2015 40.4727C25.2015 40.9762 25.0682 41.4312 24.8016 41.8374C24.5392 42.2394 24.1562 42.5568 23.6526 42.7896C23.1533 43.0223 22.5566 43.1387 21.8626 43.1387C21.2109 43.1387 20.6417 43.0329 20.1551 42.8213C19.6684 42.6097 19.2876 42.3114 19.0125 41.9263C18.7374 41.5412 18.583 41.0947 18.5491 40.5869H19.7171C19.7509 40.917 19.8673 41.1963 20.0662 41.4248C20.2651 41.6491 20.519 41.8184 20.8279 41.9326C21.1411 42.0426 21.486 42.0977 21.8626 42.0977C22.2858 42.0977 22.6645 42.0299 22.9988 41.8945C23.3374 41.7591 23.6019 41.5666 23.7923 41.3169C23.9869 41.063 24.0843 40.7731 24.0843 40.4473C24.0843 40.168 24.0039 39.9331 23.8431 39.7427C23.6865 39.5522 23.4791 39.3978 23.221 39.2793C22.9671 39.1608 22.6497 39.0465 22.2688 38.9365L21.139 38.6318C20.3857 38.4118 19.8081 38.1071 19.4061 37.7178C19.004 37.3285 18.803 36.8333 18.803 36.2324C18.803 35.7288 18.9406 35.2824 19.2156 34.8931C19.4949 34.4995 19.8737 34.1948 20.3519 33.979C20.8343 33.7632 21.3717 33.6553 21.9642 33.6553C22.5481 33.6553 23.0729 33.7611 23.5384 33.9727C24.0039 34.1842 24.372 34.4762 24.6429 34.8486C24.9137 35.2168 25.0576 35.6315 25.0745 36.0928H23.9573ZM28.2417 42.9736H27.0992V33.7822H28.2417V42.9736ZM37.8328 42.9736H36.741L31.7644 35.8135H31.6756V42.9736H30.533V33.7822H31.6375L36.614 40.9551H36.7029V33.7822H37.8328V42.9736ZM40.124 33.7822H45.6973V34.7979H41.2666V37.8701H45.4053V38.873H41.2666V41.958H45.7608V42.9736H40.124V33.7822ZM52.7747 36.0928C52.7408 35.7965 52.6329 35.5426 52.4509 35.3311C52.2732 35.1152 52.0362 34.9523 51.74 34.8423C51.4438 34.728 51.1116 34.6709 50.7434 34.6709C50.3456 34.6709 49.9923 34.7365 49.6834 34.8677C49.3787 34.9946 49.1417 35.1724 48.9724 35.4009C48.8074 35.6294 48.7249 35.8896 48.7249 36.1816C48.7249 36.6048 48.8963 36.9285 49.239 37.1528C49.586 37.3771 50.0071 37.5527 50.5022 37.6797L51.4163 37.9336C52.1272 38.1156 52.7387 38.397 53.2507 38.7778C53.7628 39.1545 54.0188 39.7194 54.0188 40.4727C54.0188 40.9762 53.8855 41.4312 53.6189 41.8374C53.3565 42.2394 52.9736 42.5568 52.47 42.7896C51.9706 43.0223 51.374 43.1387 50.6799 43.1387C50.0283 43.1387 49.4591 43.0329 48.9724 42.8213C48.4858 42.6097 48.1049 42.3114 47.8298 41.9263C47.5548 41.5412 47.4003 41.0947 47.3665 40.5869H48.5344C48.5683 40.917 48.6847 41.1963 48.8836 41.4248C49.0824 41.6491 49.3364 41.8184 49.6453 41.9326C49.9584 42.0426 50.3033 42.0977 50.6799 42.0977C51.1031 42.0977 51.4819 42.0299 51.8162 41.8945C52.1547 41.7591 52.4192 41.5666 52.6096 41.3169C52.8043 41.063 52.9016 40.7731 52.9016 40.4473C52.9016 40.168 52.8212 39.9331 52.6604 39.7427C52.5038 39.5522 52.2965 39.3978 52.0383 39.2793C51.7844 39.1608 51.4671 39.0465 51.0862 38.9365L49.9563 38.6318C49.2031 38.4118 48.6254 38.1071 48.2234 37.7178C47.8214 37.3285 47.6204 36.8333 47.6204 36.2324C47.6204 35.7288 47.7579 35.2824 48.033 34.8931C48.3123 34.4995 48.691 34.1948 49.1692 33.979C49.6516 33.7632 50.1891 33.6553 50.7815 33.6553C51.3655 33.6553 51.8902 33.7611 52.3557 33.9727C52.8212 34.1842 53.1894 34.4762 53.4602 34.8486C53.731 35.2168 53.8749 35.6315 53.8919 36.0928H52.7747ZM60.9312 36.0928C60.8973 35.7965 60.7894 35.5426 60.6074 35.3311C60.4297 35.1152 60.1927 34.9523 59.8965 34.8423C59.6003 34.728 59.2681 34.6709 58.8999 34.6709C58.5021 34.6709 58.1488 34.7365 57.8398 34.8677C57.5352 34.9946 57.2982 35.1724 57.1289 35.4009C56.9639 35.6294 56.8813 35.8896 56.8813 36.1816C56.8813 36.6048 57.0527 36.9285 57.3955 37.1528C57.7425 37.3771 58.1636 37.5527 58.6587 37.6797L59.5728 37.9336C60.2837 38.1156 60.8952 38.397 61.4072 38.7778C61.9193 39.1545 62.1753 39.7194 62.1753 40.4727C62.1753 40.9762 62.042 41.4312 61.7754 41.8374C61.513 42.2394 61.13 42.5568 60.6265 42.7896C60.1271 43.0223 59.5304 43.1387 58.8364 43.1387C58.1847 43.1387 57.6156 43.0329 57.1289 42.8213C56.6423 42.6097 56.2614 42.3114 55.9863 41.9263C55.7113 41.5412 55.5568 41.0947 55.5229 40.5869H56.6909C56.7248 40.917 56.8411 41.1963 57.04 41.4248C57.2389 41.6491 57.4928 41.8184 57.8018 41.9326C58.1149 42.0426 58.4598 42.0977 58.8364 42.0977C59.2596 42.0977 59.6383 42.0299 59.9727 41.8945C60.3112 41.7591 60.5757 41.5666 60.7661 41.3169C60.9608 41.063 61.0581 40.7731 61.0581 40.4473C61.0581 40.168 60.9777 39.9331 60.8169 39.7427C60.6603 39.5522 60.453 39.3978 60.1948 39.2793C59.9409 39.1608 59.6235 39.0465 59.2427 38.9365L58.1128 38.6318C57.3595 38.4118 56.7819 38.1071 56.3799 37.7178C55.9779 37.3285 55.7769 36.8333 55.7769 36.2324C55.7769 35.7288 55.9144 35.2824 56.1895 34.8931C56.4688 34.4995 56.8475 34.1948 57.3257 33.979C57.8081 33.7632 58.3455 33.6553 58.938 33.6553C59.522 33.6553 60.0467 33.7611 60.5122 33.9727C60.9777 34.1842 61.3459 34.4762 61.6167 34.8486C61.8875 35.2168 62.0314 35.6315 62.0483 36.0928H60.9312ZM73.8672 36.6768C73.7825 36.2663 73.6133 35.915 73.3594 35.623C73.1097 35.3268 72.805 35.1025 72.4453 34.9502C72.0898 34.7979 71.709 34.7217 71.3027 34.7217C70.7399 34.7217 70.2342 34.8634 69.7856 35.147C69.3413 35.4305 68.99 35.8473 68.7319 36.3975C68.4738 36.9476 68.3447 37.6077 68.3447 38.3779C68.3447 39.1481 68.4738 39.8083 68.7319 40.3584C68.99 40.9085 69.3413 41.3254 69.7856 41.6089C70.2342 41.8924 70.7399 42.0342 71.3027 42.0342C71.709 42.0342 72.0898 41.9601 72.4453 41.812C72.8008 41.6597 73.1033 41.4375 73.353 41.1455C73.6069 40.8493 73.7783 40.498 73.8672 40.0918H75.0097C74.8997 40.7054 74.6712 41.2407 74.3242 41.6978C73.9772 42.1506 73.5413 42.4976 73.0166 42.7388C72.4961 42.98 71.9248 43.1006 71.3027 43.1006C70.5156 43.1006 69.8152 42.908 69.2016 42.5229C68.588 42.1379 68.1077 41.5898 67.7607 40.8789C67.4137 40.1637 67.2402 39.3301 67.2402 38.3779C67.2402 37.4258 67.4137 36.5942 67.7607 35.8833C68.1077 35.1681 68.588 34.618 69.2016 34.2329C69.8152 33.8478 70.5156 33.6553 71.3027 33.6553C71.9206 33.6553 72.4897 33.7759 73.0102 34.0171C73.535 34.2583 73.9708 34.6074 74.3178 35.0645C74.6691 35.5173 74.8997 36.0547 75.0097 36.6768H73.8672ZM76.8694 33.7822H82.4426V34.7979H78.0119V37.8701H82.1506V38.873H78.0119V41.958H82.5061V42.9736H76.8694V33.7822ZM91.8051 42.9736H90.7133L85.7368 35.8135H85.6479V42.9736H84.5053V33.7822H85.6098L90.5864 40.9551H90.6753V33.7822H91.8051V42.9736ZM93.5886 33.7822H100.52V34.7979H97.6384V42.9736H96.4831V34.7979H93.5886V33.7822ZM102.304 33.7822H107.877V34.7979H103.446V37.8701H107.585V38.873H103.446V41.958H107.94V42.9736H102.304V33.7822ZM109.94 33.7822H113.063C113.761 33.7822 114.345 33.9028 114.815 34.144C115.284 34.381 115.631 34.7132 115.856 35.1406C116.084 35.5638 116.198 36.0547 116.198 36.6133C116.198 37.2354 116.055 37.7707 115.767 38.2192C115.483 38.6678 115.056 38.9915 114.485 39.1904L116.554 42.9736H115.221L113.298 39.3999L113.075 39.4062H111.082V42.9736H109.94V33.7822ZM113.025 38.3652C113.731 38.3652 114.248 38.215 114.573 37.9146C114.903 37.6141 115.069 37.1803 115.069 36.6133C115.069 36.0378 114.903 35.5913 114.573 35.2739C114.243 34.9565 113.723 34.7979 113.012 34.7979H111.082V38.3652H113.025Z" fill="white"/>
<path d="M85.2961 20.7796C85.2961 20.3191 85.2092 19.8892 85.0354 19.4901C84.8774 19.0909 84.6483 18.7378 84.3481 18.4308C84.0638 18.1237 83.7241 17.8858 83.3291 17.7169C82.9499 17.5327 82.5391 17.4406 82.0968 17.4406C81.6544 17.4406 81.2357 17.5327 80.8407 17.7169C80.4615 17.8858 80.1218 18.1237 79.8217 18.4308C79.5373 18.7378 79.3082 19.0986 79.1344 19.5131C78.9764 19.9123 78.8974 20.3344 78.8974 20.7796C78.8974 21.2248 78.9764 21.647 79.1344 22.0462C79.3082 22.43 79.5373 22.7754 79.8217 23.0824C80.1218 23.3741 80.4615 23.6121 80.8407 23.7963C81.2357 23.9652 81.6544 24.0496 82.0968 24.0496C82.5391 24.0496 82.9499 23.9652 83.3291 23.7963C83.7241 23.6274 84.0638 23.3972 84.3481 23.1055C84.6483 22.7984 84.8774 22.4453 85.0354 22.0462C85.2092 21.647 85.2961 21.2248 85.2961 20.7796ZM75.627 20.7796C75.627 19.9199 75.7928 19.114 76.1246 18.3617C76.4722 17.5941 76.9383 16.9263 77.5229 16.3583C78.1232 15.7903 78.8105 15.345 79.5847 15.0227C80.3746 14.7003 81.212 14.5391 82.0968 14.5391C82.9973 14.5391 83.8347 14.7003 84.6088 15.0227C85.3988 15.345 86.0861 15.7903 86.6706 16.3583C87.2552 16.9263 87.7134 17.5864 88.0452 18.3387C88.3928 19.0909 88.5666 19.9046 88.5666 20.7796C88.5666 21.6394 88.3928 22.4453 88.0452 23.1976C87.7134 23.9498 87.2552 24.6023 86.6706 25.155C86.1019 25.7076 85.4225 26.1452 84.6325 26.4676C83.8426 26.7899 82.9973 26.9511 82.0968 26.9511C81.212 26.9511 80.3746 26.7899 79.5847 26.4676C78.7947 26.1452 78.1074 25.7076 77.5229 25.155C76.9383 24.5869 76.4722 23.9268 76.1246 23.1746C75.7928 22.4223 75.627 21.624 75.627 20.7796ZM97.2471 14.5391C97.958 14.5391 98.6137 14.6696 99.2141 14.9305C99.8302 15.1915 100.36 15.5446 100.802 15.9898C101.244 16.435 101.592 16.9647 101.845 17.5788C102.097 18.1928 102.224 18.853 102.224 19.5592V26.7209H98.9771V19.7434C98.9771 19.0833 98.7401 18.5459 98.2661 18.1314C97.8079 17.7016 97.2234 17.4866 96.5124 17.4866C96.1332 17.4866 95.7777 17.5557 95.4459 17.6939C95.13 17.8167 94.8535 17.9933 94.6165 18.2235C94.3795 18.4538 94.1899 18.7302 94.0477 19.0525C93.9213 19.3596 93.8581 19.6973 93.8581 20.0658V26.7209H90.5877V14.7463H93.8581V15.9898C94.2215 15.5293 94.6955 15.1762 95.2801 14.9305C95.8804 14.6696 96.5361 14.5391 97.2471 14.5391ZM113.48 19.5131C113.243 18.8683 112.864 18.3617 112.342 17.9933C111.821 17.6095 111.228 17.4176 110.565 17.4176C109.885 17.4176 109.285 17.6018 108.764 17.9702C108.242 18.3387 107.855 18.853 107.602 19.5131H113.48ZM115.257 24.9016C115.02 25.2087 114.72 25.4927 114.357 25.7537C114.009 25.9993 113.622 26.2142 113.195 26.3985C112.769 26.5673 112.318 26.6978 111.844 26.7899C111.371 26.8974 110.897 26.9511 110.423 26.9511C109.554 26.9511 108.732 26.7899 107.958 26.4676C107.184 26.1298 106.504 25.6846 105.92 25.1319C105.351 24.5639 104.901 23.9038 104.569 23.1515C104.237 22.3839 104.071 21.5779 104.071 20.7336C104.071 19.8739 104.245 19.0756 104.593 18.3387C104.94 17.5864 105.406 16.934 105.991 16.3813C106.591 15.8286 107.286 15.3911 108.076 15.0687C108.882 14.7463 109.735 14.5851 110.636 14.5851C111.631 14.5851 112.54 14.777 113.361 15.1608C114.183 15.5293 114.878 16.0512 115.447 16.7267C116.015 17.3869 116.434 18.1698 116.703 19.0756C116.971 19.966 117.058 20.9408 116.963 22.0001H107.602C107.808 22.6142 108.203 23.1208 108.787 23.52C109.372 23.9191 110.035 24.1187 110.778 24.1187C111.758 24.1187 112.587 23.7272 113.266 22.9443L115.257 24.9016Z" fill="#94E0F7"/>
<path d="M55.9286 4.69007V21.824H59.4538C60.7789 21.824 61.979 21.6097 63.054 21.181C64.1291 20.7523 65.0542 20.1598 65.8292 19.4033C66.6043 18.6468 67.1918 17.7517 67.5918 16.7179C68.0168 15.6588 68.2293 14.5115 68.2293 13.2759C68.2293 12.0152 68.0168 10.8679 67.5918 9.83403C67.1668 8.77498 66.5668 7.86723 65.7917 7.11076C65.0417 6.3543 64.1291 5.76173 63.054 5.33307C61.979 4.90441 60.7789 4.69007 59.4538 4.69007H55.9286ZM50.7158 26.5141V0H59.4538C61.504 0 63.3791 0.34041 65.0792 1.02123C66.8043 1.67683 68.2794 2.6098 69.5044 3.82014C70.7545 5.00527 71.7171 6.41734 72.3921 8.05634C73.0921 9.67013 73.4422 11.4226 73.4422 13.3138C73.4422 15.2049 73.0921 16.9574 72.3921 18.5712C71.7171 20.185 70.7545 21.5844 69.5044 22.7696C68.2794 23.9295 66.8043 24.8498 65.0792 25.5307C63.3791 26.1863 61.504 26.5141 59.4538 26.5141H50.7158Z" fill="#94E0F7"/>
<path d="M28.0739 20.6961C28.0739 20.2293 27.9886 19.7936 27.8182 19.389C27.6633 18.9844 27.4387 18.6265 27.1443 18.3153C26.8655 18.004 26.5324 17.7629 26.1451 17.5917C25.7733 17.4049 25.3705 17.3116 24.9367 17.3116C24.5029 17.3116 24.0924 17.4049 23.7051 17.5917C23.3333 17.7629 23.0002 18.004 22.7059 18.3153C22.427 18.6265 22.2024 18.9922 22.032 19.4123C21.877 19.8169 21.7996 20.2448 21.7996 20.6961C21.7996 21.1474 21.877 21.5753 22.032 21.9799C22.2024 22.369 22.427 22.7191 22.7059 23.0303C23.0002 23.326 23.3333 23.5672 23.7051 23.7539C24.0924 23.9251 24.5029 24.0107 24.9367 24.0107C25.3705 24.0107 25.7733 23.9251 26.1451 23.7539C26.5324 23.5827 26.8655 23.3493 27.1443 23.0537C27.4387 22.7424 27.6633 22.3846 27.8182 21.9799C27.9886 21.5753 28.0739 21.1474 28.0739 20.6961ZM18.5928 20.6961C18.5928 19.8247 18.7554 19.0077 19.0808 18.2452C19.4216 17.4671 19.8786 16.7902 20.4518 16.2145C21.0405 15.6387 21.7144 15.1874 22.4735 14.8607C23.2481 14.5339 24.0692 14.3705 24.9367 14.3705C25.8198 14.3705 26.6408 14.5339 27.4 14.8607C28.1745 15.1874 28.8484 15.6387 29.4217 16.2145C29.9948 16.7902 30.4441 17.4594 30.7695 18.2219C31.1103 18.9844 31.2807 19.8091 31.2807 20.6961C31.2807 21.5676 31.1103 22.3846 30.7695 23.147C30.4441 23.9095 29.9948 24.5709 29.4217 25.1311C28.8639 25.6913 28.1977 26.1348 27.4232 26.4616C26.6486 26.7884 25.8198 26.9518 24.9367 26.9518C24.0692 26.9518 23.2481 26.7884 22.4735 26.4616C21.6989 26.1348 21.025 25.6913 20.4518 25.1311C19.8786 24.5554 19.4216 23.8862 19.0808 23.1237C18.7554 22.3612 18.5928 21.552 18.5928 20.6961ZM35.9812 20.6728C35.9812 21.1396 36.0587 21.5831 36.2136 22.0033C36.384 22.4079 36.6086 22.758 36.8875 23.0537C37.1663 23.3493 37.4995 23.5827 37.8867 23.7539C38.2741 23.9251 38.7001 24.0107 39.1648 24.0107C39.6141 24.0107 40.0246 23.9251 40.3964 23.7539C40.7838 23.5827 41.1168 23.3493 41.3957 23.0537C41.6745 22.758 41.8914 22.4079 42.0463 22.0033C42.2013 21.5987 42.2787 21.1552 42.2787 20.6728C42.2787 20.1904 42.1935 19.7469 42.0231 19.3423C41.8682 18.9377 41.6513 18.5876 41.3724 18.2919C41.0936 17.9807 40.7605 17.7395 40.3732 17.5683C40.0014 17.3971 39.5909 17.3116 39.1416 17.3116C38.6924 17.3116 38.2741 17.3971 37.8867 17.5683C37.4995 17.7395 37.1663 17.9807 36.8875 18.2919C36.6086 18.5876 36.384 18.9455 36.2136 19.3656C36.0587 19.7703 35.9812 20.206 35.9812 20.6728ZM39.5599 14.3938C40.381 14.3938 41.1478 14.5572 41.8604 14.884C42.5886 15.1952 43.216 15.6309 43.7428 16.1911C44.2849 16.7514 44.711 17.4127 45.0208 18.1752C45.3306 18.9222 45.4856 19.7236 45.4856 20.5794C45.4856 21.4353 45.3229 22.2522 44.9975 23.0303C44.6877 23.7928 44.2617 24.4697 43.7194 25.0611C43.1773 25.6368 42.5421 26.0959 41.8139 26.4383C41.1013 26.7806 40.3423 26.9518 39.5366 26.9518C38.1579 26.9518 36.9727 26.4304 35.9812 25.3879V26.7184H32.7744V10.4023H35.9812V15.911C36.4305 15.4131 36.9572 15.0396 37.5614 14.7906C38.1811 14.5261 38.8473 14.3938 39.5599 14.3938Z" fill="#11B1E1"/>
<path d="M16.3193 18.1373C16.3193 19.284 16.0898 20.3685 15.6307 21.3907C15.1986 22.413 14.5909 23.3105 13.8077 24.0833C13.0245 24.8312 12.0928 25.4296 11.0125 25.8783C9.95921 26.3022 8.82492 26.5141 7.60961 26.5141C6.4213 26.5141 5.27351 26.3022 4.16623 25.8783C3.05894 25.4296 2.05969 24.8063 1.16846 24.0085L2.62683 19.8949C3.41004 20.6179 4.12572 21.0916 4.77388 21.316C5.44905 21.5403 6.09722 21.6525 6.71838 21.6525C7.33955 21.6525 7.89318 21.5528 8.37931 21.3534C8.86543 21.1539 9.28404 20.8921 9.63513 20.568C9.98622 20.219 10.2428 19.8326 10.4048 19.4087C10.5939 18.9849 10.6884 18.5361 10.6884 18.0625V0H16.3193V18.1373Z" fill="#11B1E1"/>
</svg>
