<svg width="81" height="50" viewBox="0 0 81 50" fill="none" xmlns="http://www.w3.org/2000/svg">
<path d="M11.8545 18.5393C11.8545 19.4007 11.6903 20.2153 11.3618 20.9831C11.0526 21.7509 10.6179 22.4251 10.0575 23.0056C9.49708 23.5674 8.83047 24.0168 8.05756 24.3539C7.30397 24.6723 6.49241 24.8314 5.62289 24.8314C4.77268 24.8314 3.95147 24.6723 3.15923 24.3539C2.367 24.0168 1.65206 23.5487 1.0144 22.9494L2.05783 19.8595C2.6182 20.4026 3.13025 20.7584 3.594 20.9269C4.07706 21.0955 4.54081 21.1798 4.98524 21.1798C5.42966 21.1798 5.82578 21.1049 6.17359 20.955C6.5214 20.8052 6.8209 20.6086 7.0721 20.3652C7.32329 20.1029 7.50686 19.8127 7.6228 19.4944C7.75805 19.176 7.82569 18.8389 7.82569 18.4831V4.91571H11.8545V18.5393ZM25.6902 17.3034C25.6902 16.7416 25.5838 16.2172 25.3713 15.7303C25.1781 15.2434 24.8979 14.8127 24.5308 14.4382C24.183 14.0636 23.7675 13.7734 23.2845 13.5674C22.8207 13.3427 22.3183 13.2303 21.7773 13.2303C21.2362 13.2303 20.7242 13.3427 20.2411 13.5674C19.7774 13.7734 19.3619 14.0636 18.9948 14.4382C18.647 14.8127 18.3668 15.2528 18.1543 15.7584C17.961 16.2453 17.8644 16.7603 17.8644 17.3034C17.8644 17.8465 17.961 18.3614 18.1543 18.8483C18.3668 19.3164 18.647 19.7378 18.9948 20.1123C19.3619 20.4681 19.7774 20.7584 20.2411 20.9831C20.7242 21.1891 21.2362 21.2921 21.7773 21.2921C22.3183 21.2921 22.8207 21.1891 23.2845 20.9831C23.7675 20.7771 24.183 20.4962 24.5308 20.1404C24.8979 19.7659 25.1781 19.3352 25.3713 18.8483C25.5838 18.3614 25.6902 17.8465 25.6902 17.3034ZM13.8646 17.3034C13.8646 16.2546 14.0675 15.2715 14.4733 14.3539C14.8984 13.4176 15.4684 12.6029 16.1834 11.9101C16.9176 11.2172 17.7581 10.6741 18.705 10.2809C19.6711 9.88762 20.6952 9.69099 21.7773 9.69099C22.8787 9.69099 23.9028 9.88762 24.8496 10.2809C25.8157 10.6741 26.6563 11.2172 27.3713 11.9101C28.0862 12.6029 28.6466 13.4082 29.0523 14.3258C29.4774 15.2434 29.69 16.2359 29.69 17.3034C29.69 18.3521 29.4774 19.3352 29.0523 20.2528C28.6466 21.1704 28.0862 21.9663 27.3713 22.6404C26.6756 23.3146 25.8447 23.8483 24.8786 24.2416C23.9124 24.6348 22.8787 24.8314 21.7773 24.8314C20.6952 24.8314 19.6711 24.6348 18.705 24.2416C17.7388 23.8483 16.8983 23.3146 16.1834 22.6404C15.4684 21.9476 14.8984 21.1423 14.4733 20.2247C14.0675 19.3071 13.8646 18.3333 13.8646 17.3034ZM35.5529 17.2753C35.5529 17.8371 35.6495 18.3708 35.8427 18.8764C36.0553 19.3633 36.3354 19.7847 36.6832 20.1404C37.0311 20.4962 37.4465 20.7771 37.9296 20.9831C38.4127 21.1891 38.944 21.2921 39.5237 21.2921C40.0841 21.2921 40.5961 21.1891 41.0599 20.9831C41.543 20.7771 41.9584 20.4962 42.3062 20.1404C42.654 19.7847 42.9245 19.3633 43.1177 18.8764C43.311 18.3895 43.4076 17.8558 43.4076 17.2753C43.4076 16.6948 43.3013 16.1611 43.0887 15.6741C42.8955 15.1872 42.625 14.7659 42.2772 14.4101C41.9294 14.0355 41.514 13.7453 41.0309 13.5393C40.5671 13.3333 40.0551 13.2303 39.4947 13.2303C38.9344 13.2303 38.4127 13.3333 37.9296 13.5393C37.4465 13.7453 37.0311 14.0355 36.6832 14.4101C36.3354 14.7659 36.0553 15.1966 35.8427 15.7022C35.6495 16.1891 35.5529 16.7135 35.5529 17.2753ZM40.0164 9.71908C41.0406 9.71908 41.997 9.91571 42.8859 10.309C43.7941 10.6835 44.5766 11.2078 45.2337 11.882C45.9099 12.5562 46.4413 13.3521 46.8277 14.2696C47.2142 15.1685 47.4075 16.133 47.4075 17.1629C47.4075 18.1928 47.2045 19.176 46.7987 20.1123C46.4123 21.0299 45.8809 21.8445 45.2046 22.5562C44.5284 23.249 43.7361 23.8015 42.8279 24.2135C41.9391 24.6254 40.9923 24.8314 39.9874 24.8314C38.2678 24.8314 36.7896 24.2041 35.5529 22.9494V24.5505H31.553V4.91571H35.5529V11.5449C36.1133 10.9456 36.7702 10.4962 37.5238 10.1966C38.2968 9.87823 39.1276 9.71908 40.0164 9.71908Z" fill="#11B1E1"/>
<path d="M17.7528 30.4512V42.3806H20.3071C21.2672 42.3806 22.1367 42.2314 22.9156 41.9329C23.6946 41.6345 24.3648 41.2219 24.9264 40.6952C25.488 40.1685 25.9137 39.5453 26.2035 38.8255C26.5115 38.0881 26.6655 37.2893 26.6655 36.4291C26.6655 35.5513 26.5115 34.7524 26.2035 34.0326C25.8956 33.2953 25.4608 32.6633 24.8992 32.1366C24.3558 31.6099 23.6946 31.1973 22.9156 30.8989C22.1367 30.6004 21.2672 30.4512 20.3071 30.4512H17.7528ZM13.9758 45.6461V27.1857H20.3071C21.7925 27.1857 23.1511 27.4227 24.383 27.8968C25.6329 28.3532 26.7017 29.0028 27.5893 29.8455C28.4951 30.6706 29.1925 31.6538 29.6816 32.7949C30.1889 33.9185 30.4425 35.1387 30.4425 36.4554C30.4425 37.7721 30.1889 38.9923 29.6816 40.1159C29.1925 41.2395 28.4951 42.2138 27.5893 43.039C26.7017 43.8465 25.6329 44.4873 24.383 44.9614C23.1511 45.4178 21.7925 45.6461 20.3071 45.6461H13.9758ZM43.2756 38.8255C43.2756 38.2988 43.1759 37.8072 42.9767 37.3508C42.7955 36.8943 42.5329 36.4905 42.1887 36.1394C41.8626 35.7883 41.4731 35.5161 41.0202 35.323C40.5855 35.1123 40.1145 35.007 39.6073 35.007C39.1 35.007 38.62 35.1123 38.1671 35.323C37.7323 35.5161 37.3429 35.7883 36.9987 36.1394C36.6726 36.4905 36.4099 36.9031 36.2107 37.3771C36.0295 37.8336 35.9389 38.3163 35.9389 38.8255C35.9389 39.3346 36.0295 39.8174 36.2107 40.2739C36.4099 40.7128 36.6726 41.1078 36.9987 41.4589C37.3429 41.7925 37.7323 42.0646 38.1671 42.2753C38.62 42.4684 39.1 42.5649 39.6073 42.5649C40.1145 42.5649 40.5855 42.4684 41.0202 42.2753C41.4731 42.0821 41.8626 41.8188 42.1887 41.4852C42.5329 41.1341 42.7955 40.7303 42.9767 40.2739C43.1759 39.8174 43.2756 39.3346 43.2756 38.8255ZM32.1891 38.8255C32.1891 37.8423 32.3793 36.9206 32.7598 36.0604C33.1583 35.1826 33.6927 34.4189 34.3629 33.7693C35.0513 33.1197 35.8393 32.6106 36.727 32.2419C37.6327 31.8732 38.5928 31.6889 39.6073 31.6889C40.6398 31.6889 41.5999 31.8732 42.4876 32.2419C43.3933 32.6106 44.1813 33.1197 44.8516 33.7693C45.5218 34.4189 46.0472 35.1738 46.4276 36.034C46.8261 36.8943 47.0254 37.8248 47.0254 38.8255C47.0254 39.8086 46.8261 40.7303 46.4276 41.5906C46.0472 42.4508 45.5218 43.197 44.8516 43.829C44.1994 44.461 43.4205 44.9614 42.5147 45.33C41.609 45.6987 40.6398 45.8831 39.6073 45.8831C38.5928 45.8831 37.6327 45.6987 36.727 45.33C35.8212 44.9614 35.0332 44.461 34.3629 43.829C33.6927 43.1794 33.1583 42.4245 32.7598 41.5642C32.3793 40.704 32.1891 39.7911 32.1891 38.8255ZM56.9783 31.6889C57.7935 31.6889 58.5452 31.8381 59.2336 32.1366C59.9401 32.435 60.547 32.8388 61.0542 33.348C61.5614 33.8571 61.9599 34.4628 62.2498 35.165C62.5396 35.8673 62.6846 36.6222 62.6846 37.4298V45.6197H58.9619V37.6404C58.9619 36.8855 58.6902 36.2711 58.1467 35.797C57.6214 35.3055 56.9511 35.0597 56.1359 35.0597C55.7012 35.0597 55.2936 35.1387 54.9132 35.2967C54.5509 35.4371 54.2339 35.639 53.9621 35.9024C53.6904 36.1657 53.473 36.4817 53.31 36.8504C53.1651 37.2015 53.0926 37.5878 53.0926 38.0091V45.6197H49.3428V31.9259H53.0926V33.348C53.5093 32.8213 54.0527 32.4175 54.723 32.1366C55.4113 31.8381 56.1631 31.6889 56.9783 31.6889ZM75.5903 37.3771C75.3186 36.6397 74.8838 36.0604 74.286 35.639C73.6882 35.2001 73.0089 34.9807 72.2481 34.9807C71.4691 34.9807 70.7807 35.1913 70.1829 35.6127C69.5851 36.034 69.1413 36.6222 68.8515 37.3771H75.5903ZM77.6283 43.5393C77.3565 43.8904 77.0123 44.2152 76.5957 44.5137C76.1972 44.7946 75.7533 45.0404 75.2642 45.251C74.7751 45.4442 74.2588 45.5934 73.7154 45.6987C73.1719 45.8216 72.6285 45.8831 72.085 45.8831C71.0887 45.8831 70.1467 45.6987 69.2591 45.33C68.3714 44.9438 67.5925 44.4347 66.9222 43.8027C66.2701 43.1531 65.7538 42.3982 65.3734 41.5379C64.993 40.6601 64.8028 39.7384 64.8028 38.7728C64.8028 37.7897 65.002 36.8767 65.4006 36.034C65.7991 35.1738 66.3335 34.4277 67.0037 33.7956C67.6921 33.1636 68.4892 32.6633 69.3949 32.2946C70.3188 31.9259 71.297 31.7416 72.3296 31.7416C73.4708 31.7416 74.5125 31.961 75.4544 32.3999C76.3964 32.8213 77.1935 33.4182 77.8456 34.1906C78.4978 34.9456 78.9778 35.8409 79.2858 36.8767C79.5937 37.895 79.6934 39.0098 79.5847 40.2212H68.8515C69.087 40.9234 69.5399 41.5028 70.2101 41.9593C70.8804 42.4157 71.6412 42.6439 72.4926 42.6439C73.6158 42.6439 74.5668 42.1963 75.3457 41.3009L77.6283 43.5393Z" fill="#94E0F7"/>
</svg>
